<svg width="56" height="56" viewBox="0 0 56 56" fill="none" xmlns="http://www.w3.org/2000/svg">
<g clip-path="url(#clip0_514_2531)">
<rect width="56" height="56" rx="14" fill="white"/>
<circle cx="7.87262" cy="41.0921" r="41.5381" transform="rotate(-0.403168 7.87262 41.0921)" fill="url(#paint0_linear_514_2531)" stroke="url(#paint1_linear_514_2531)" stroke-width="0.085853"/>
<circle opacity="0.4" cx="39.0914" cy="20.7757" r="41.5381" transform="rotate(-0.403168 39.0914 20.7757)" fill="url(#paint2_linear_514_2531)" stroke="url(#paint3_radial_514_2531)" stroke-width="0.085853"/>
<path d="M16.1488 24.0002H39.8487M21.397 16.0675L27.9988 24.0003L34.6117 16.0731M39.5801 23.3723L34.9821 16.4752C34.8663 16.3015 34.8084 16.2147 34.7319 16.1519C34.6642 16.0962 34.5862 16.0545 34.5024 16.029C34.4076 16.0002 34.3033 16.0002 34.0946 16.0002H21.903C21.6942 16.0002 21.5899 16.0002 21.4952 16.029C21.4113 16.0545 21.3333 16.0962 21.2656 16.1519C21.1891 16.2147 21.1312 16.3015 21.0154 16.4752L16.4174 23.3723C16.2667 23.5984 16.1913 23.7114 16.1643 23.833C16.1404 23.9404 16.1435 24.0521 16.1733 24.158C16.207 24.2779 16.2885 24.3866 16.4516 24.604L27.1454 38.8624C27.4349 39.2484 27.5797 39.4414 27.7571 39.5104C27.9125 39.5709 28.085 39.5709 28.2404 39.5104C28.4179 39.4414 28.5626 39.2484 28.8521 38.8624L39.546 24.604C39.709 24.3866 39.7905 24.2779 39.8242 24.158C39.854 24.0521 39.8571 23.9404 39.8332 23.833C39.8062 23.7114 39.7309 23.5984 39.5801 23.3723Z" stroke="#1B223C" stroke-width="2" stroke-linecap="round" stroke-linejoin="round"/>
</g>
<defs>
<linearGradient id="paint0_linear_514_2531" x1="7.87262" y1="-0.48893" x2="7.87262" y2="82.6732" gradientUnits="userSpaceOnUse">
<stop stop-color="#DAE2FF" stop-opacity="0.56"/>
<stop offset="1" stop-color="white" stop-opacity="0.2"/>
</linearGradient>
<linearGradient id="paint1_linear_514_2531" x1="51.4246" y1="36.9581" x2="-44.9089" y2="58.3014" gradientUnits="userSpaceOnUse">
<stop stop-color="#BDC7F4"/>
<stop offset="1" stop-color="#BDC7F4" stop-opacity="0"/>
</linearGradient>
<linearGradient id="paint2_linear_514_2531" x1="39.0914" y1="-20.8053" x2="39.0914" y2="62.3568" gradientUnits="userSpaceOnUse">
<stop stop-color="#B4C4FF" stop-opacity="0.5"/>
<stop offset="0.9999" stop-color="#E1E8FF" stop-opacity="0.0821875"/>
<stop offset="1" stop-color="#4C5C99" stop-opacity="0.08"/>
</linearGradient>
<radialGradient id="paint3_radial_514_2531" cx="0" cy="0" r="1" gradientUnits="userSpaceOnUse" gradientTransform="translate(39.0914 20.7757) rotate(89.968) scale(86.1425)">
<stop offset="0.046875" stop-color="#BDC7F4" stop-opacity="0"/>
<stop offset="1" stop-color="#BDC7F4"/>
</radialGradient>
<clipPath id="clip0_514_2531">
<rect width="56" height="56" rx="14" fill="white"/>
</clipPath>
</defs>
</svg>
